HIERARCHY
ROOT Hips
{
	OFFSET 0.0 0.0 0.0
	CHANNELS 6 Xposition Yposition Zposition Zrotation Xrotation Yrotation
}
MOTION
Frames: 3
Frame Time: 0.033333
0.0 100.0 0.0 0.0 0.0 0.0
5.0 100.0 0.0 2.0 0.0 0.0
10.0 100.0 0.0 4.0 0.0 0.0
